<?xml version="1.0" standalone="no"?>
<svg xmlns:xlink="http://www.w3.org/1999/xlink" id="wave" style="transform:rotate(0deg); transition: 0.3s" viewBox="0 0 1440 300" version="1.1" xmlns="http://www.w3.org/2000/svg"><defs><linearGradient id="sw-gradient-0" x1="0" x2="0" y1="1" y2="0"><stop stop-color="rgba(64.177, 64.177, 64.177, 1)" offset="0%"/><stop stop-color="rgba(250, 250, 250, 1)" offset="100%"/></linearGradient></defs><path style="transform:translate(0, 0px); opacity:1" fill="url(#sw-gradient-0)" d="M0,60L80,90C160,120,320,180,480,215C640,250,800,260,960,225C1120,190,1280,110,1440,80C1600,50,1760,70,1920,70C2080,70,2240,50,2400,40C2560,30,2720,30,2880,25C3040,20,3200,10,3360,40C3520,70,3680,140,3840,160C4000,180,4160,150,4320,120C4480,90,4640,60,4800,75C4960,90,5120,150,5280,175C5440,200,5600,190,5760,190C5920,190,6080,200,6240,215C6400,230,6560,250,6720,215C6880,180,7040,90,7200,70C7360,50,7520,100,7680,105C7840,110,8000,70,8160,90C8320,110,8480,190,8640,210C8800,230,8960,190,9120,150C9280,110,9440,70,9600,60C9760,50,9920,70,10080,105C10240,140,10400,190,10560,180C10720,170,10880,100,11040,65C11200,30,11360,30,11440,30L11520,30L11520,300L11440,300C11360,300,11200,300,11040,300C10880,300,10720,300,10560,300C10400,300,10240,300,10080,300C9920,300,9760,300,9600,300C9440,300,9280,300,9120,300C8960,300,8800,300,8640,300C8480,300,8320,300,8160,300C8000,300,7840,300,7680,300C7520,300,7360,300,7200,300C7040,300,6880,300,6720,300C6560,300,6400,300,6240,300C6080,300,5920,300,5760,300C5600,300,5440,300,5280,300C5120,300,4960,300,4800,300C4640,300,4480,300,4320,300C4160,300,4000,300,3840,300C3680,300,3520,300,3360,300C3200,300,3040,300,2880,300C2720,300,2560,300,2400,300C2240,300,2080,300,1920,300C1760,300,1600,300,1440,300C1280,300,1120,300,960,300C800,300,640,300,480,300C320,300,160,300,80,300L0,300Z"/></svg>