<?xml version="1.0" standalone="no"?>
<svg xmlns:xlink="http://www.w3.org/1999/xlink" id="wave" style="transform:rotate(0deg); transition: 0.3s" viewBox="0 0 1440 300" version="1.1" xmlns="http://www.w3.org/2000/svg"><defs><linearGradient id="sw-gradient-0" x1="0" x2="0" y1="1" y2="0"><stop stop-color="rgba(255, 255, 255, 1)" offset="0%"/><stop stop-color="rgba(250, 250, 250, 1)" offset="100%"/></linearGradient></defs><path style="transform:translate(0, 0px); opacity:1" fill="url(#sw-gradient-0)" d="M0,60L80,85C160,110,320,160,480,190C640,220,800,230,960,200C1120,170,1280,100,1440,60C1600,20,1760,10,1920,30C2080,50,2240,100,2400,100C2560,100,2720,50,2880,60C3040,70,3200,140,3360,160C3520,180,3680,150,3840,135C4000,120,4160,120,4320,140C4480,160,4640,200,4800,225C4960,250,5120,260,5280,260C5440,260,5600,250,5760,225C5920,200,6080,160,6240,130C6400,100,6560,80,6720,90C6880,100,7040,140,7200,150C7360,160,7520,140,7680,140C7840,140,8000,160,8160,155C8320,150,8480,120,8640,135C8800,150,8960,210,9120,210C9280,210,9440,150,9600,135C9760,120,9920,150,10080,140C10240,130,10400,80,10560,70C10720,60,10880,90,11040,105C11200,120,11360,120,11440,120L11520,120L11520,300L11440,300C11360,300,11200,300,11040,300C10880,300,10720,300,10560,300C10400,300,10240,300,10080,300C9920,300,9760,300,9600,300C9440,300,9280,300,9120,300C8960,300,8800,300,8640,300C8480,300,8320,300,8160,300C8000,300,7840,300,7680,300C7520,300,7360,300,7200,300C7040,300,6880,300,6720,300C6560,300,6400,300,6240,300C6080,300,5920,300,5760,300C5600,300,5440,300,5280,300C5120,300,4960,300,4800,300C4640,300,4480,300,4320,300C4160,300,4000,300,3840,300C3680,300,3520,300,3360,300C3200,300,3040,300,2880,300C2720,300,2560,300,2400,300C2240,300,2080,300,1920,300C1760,300,1600,300,1440,300C1280,300,1120,300,960,300C800,300,640,300,480,300C320,300,160,300,80,300L0,300Z"/></svg>