<?xml version="1.0" standalone="no"?>
<svg xmlns:xlink="http://www.w3.org/1999/xlink" id="wave" style="transform:rotate(0deg); transition: 0.3s" viewBox="0 0 1440 490" version="1.1" xmlns="http://www.w3.org/2000/svg"><defs><linearGradient id="sw-gradient-0" x1="0" x2="0" y1="1" y2="0"><stop stop-color="rgba(255, 255, 255, 1)" offset="0%"/><stop stop-color="rgba(250, 250, 250, 1)" offset="100%"/></linearGradient></defs><path style="transform:translate(0, 0px); opacity:1" fill="url(#sw-gradient-0)" d="M0,98L80,147C160,196,320,294,480,351.2C640,408,800,425,960,367.5C1120,310,1280,180,1440,130.7C1600,82,1760,114,1920,114.3C2080,114,2240,82,2400,65.3C2560,49,2720,49,2880,40.8C3040,33,3200,16,3360,65.3C3520,114,3680,229,3840,261.3C4000,294,4160,245,4320,196C4480,147,4640,98,4800,122.5C4960,147,5120,245,5280,285.8C5440,327,5600,310,5760,310.3C5920,310,6080,327,6240,351.2C6400,376,6560,408,6720,351.2C6880,294,7040,147,7200,114.3C7360,82,7520,163,7680,171.5C7840,180,8000,114,8160,147C8320,180,8480,310,8640,343C8800,376,8960,310,9120,245C9280,180,9440,114,9600,98C9760,82,9920,114,10080,171.5C10240,229,10400,310,10560,294C10720,278,10880,163,11040,106.2C11200,49,11360,49,11440,49L11520,49L11520,490L11440,490C11360,490,11200,490,11040,490C10880,490,10720,490,10560,490C10400,490,10240,490,10080,490C9920,490,9760,490,9600,490C9440,490,9280,490,9120,490C8960,490,8800,490,8640,490C8480,490,8320,490,8160,490C8000,490,7840,490,7680,490C7520,490,7360,490,7200,490C7040,490,6880,490,6720,490C6560,490,6400,490,6240,490C6080,490,5920,490,5760,490C5600,490,5440,490,5280,490C5120,490,4960,490,4800,490C4640,490,4480,490,4320,490C4160,490,4000,490,3840,490C3680,490,3520,490,3360,490C3200,490,3040,490,2880,490C2720,490,2560,490,2400,490C2240,490,2080,490,1920,490C1760,490,1600,490,1440,490C1280,490,1120,490,960,490C800,490,640,490,480,490C320,490,160,490,80,490L0,490Z"/></svg>