<?xml version="1.0" standalone="no"?>
<svg xmlns:xlink="http://www.w3.org/1999/xlink" id="wave" style="transform:rotate(0deg); transition: 0.3s" viewBox="0 0 1440 490" version="1.1" xmlns="http://www.w3.org/2000/svg"><defs><linearGradient id="sw-gradient-0" x1="0" x2="0" y1="1" y2="0"><stop stop-color="rgba(255, 255, 255, 1)" offset="0%"/><stop stop-color="rgba(255, 255, 255, 1)" offset="100%"/></linearGradient></defs><path style="transform:translate(0, 0px); opacity:1" fill="url(#sw-gradient-0)" d="M0,294L48,318.5C96,343,192,392,288,416.5C384,441,480,441,576,424.7C672,408,768,376,864,302.2C960,229,1056,114,1152,57.2C1248,0,1344,0,1440,57.2C1536,114,1632,229,1728,245C1824,261,1920,180,2016,130.7C2112,82,2208,65,2304,98C2400,131,2496,212,2592,204.2C2688,196,2784,98,2880,122.5C2976,147,3072,294,3168,334.8C3264,376,3360,310,3456,253.2C3552,196,3648,147,3744,138.8C3840,131,3936,163,4032,212.3C4128,261,4224,327,4320,318.5C4416,310,4512,229,4608,236.8C4704,245,4800,343,4896,392C4992,441,5088,441,5184,416.5C5280,392,5376,343,5472,277.7C5568,212,5664,131,5760,98C5856,65,5952,82,6048,98C6144,114,6240,131,6336,138.8C6432,147,6528,147,6624,138.8C6720,131,6816,114,6864,106.2L6912,98L6912,490L6864,490C6816,490,6720,490,6624,490C6528,490,6432,490,6336,490C6240,490,6144,490,6048,490C5952,490,5856,490,5760,490C5664,490,5568,490,5472,490C5376,490,5280,490,5184,490C5088,490,4992,490,4896,490C4800,490,4704,490,4608,490C4512,490,4416,490,4320,490C4224,490,4128,490,4032,490C3936,490,3840,490,3744,490C3648,490,3552,490,3456,490C3360,490,3264,490,3168,490C3072,490,2976,490,2880,490C2784,490,2688,490,2592,490C2496,490,2400,490,2304,490C2208,490,2112,490,2016,490C1920,490,1824,490,1728,490C1632,490,1536,490,1440,490C1344,490,1248,490,1152,490C1056,490,960,490,864,490C768,490,672,490,576,490C480,490,384,490,288,490C192,490,96,490,48,490L0,490Z"/></svg>