<?xml version="1.0" standalone="no"?>
<svg xmlns:xlink="http://www.w3.org/1999/xlink" id="wave" style="transform:rotate(0deg); transition: 0.3s" viewBox="0 0 1440 490" version="1.1" xmlns="http://www.w3.org/2000/svg"><defs><linearGradient id="sw-gradient-0" x1="0" x2="0" y1="1" y2="0"><stop stop-color="rgba(255, 255, 255, 1)" offset="0%"/><stop stop-color="rgba(255, 255, 255, 1)" offset="100%"/></linearGradient></defs><path style="transform:translate(0, 0px); opacity:1" fill="url(#sw-gradient-0)" d="M0,147L80,196C160,245,320,343,480,383.8C640,425,800,408,960,359.3C1120,310,1280,229,1440,204.2C1600,180,1760,212,1920,253.2C2080,294,2240,343,2400,310.3C2560,278,2720,163,2880,114.3C3040,65,3200,82,3360,130.7C3520,180,3680,261,3840,302.2C4000,343,4160,343,4320,351.2C4480,359,4640,376,4800,375.7C4960,376,5120,359,5280,318.5C5440,278,5600,212,5760,212.3C5920,212,6080,278,6240,253.2C6400,229,6560,114,6720,130.7C6880,147,7040,294,7200,326.7C7360,359,7520,278,7680,228.7C7840,180,8000,163,8160,171.5C8320,180,8480,212,8640,236.8C8800,261,8960,278,9120,294C9280,310,9440,327,9600,334.8C9760,343,9920,343,10080,334.8C10240,327,10400,310,10560,310.3C10720,310,10880,327,11040,294C11200,261,11360,180,11440,138.8L11520,98L11520,490L11440,490C11360,490,11200,490,11040,490C10880,490,10720,490,10560,490C10400,490,10240,490,10080,490C9920,490,9760,490,9600,490C9440,490,9280,490,9120,490C8960,490,8800,490,8640,490C8480,490,8320,490,8160,490C8000,490,7840,490,7680,490C7520,490,7360,490,7200,490C7040,490,6880,490,6720,490C6560,490,6400,490,6240,490C6080,490,5920,490,5760,490C5600,490,5440,490,5280,490C5120,490,4960,490,4800,490C4640,490,4480,490,4320,490C4160,490,4000,490,3840,490C3680,490,3520,490,3360,490C3200,490,3040,490,2880,490C2720,490,2560,490,2400,490C2240,490,2080,490,1920,490C1760,490,1600,490,1440,490C1280,490,1120,490,960,490C800,490,640,490,480,490C320,490,160,490,80,490L0,490Z"/></svg>